PathFileType	4	(X/Y/Z)	4_coords_data.trc
DataRate	CameraRate	NumFrames	NumMarkers	Units	OrigDataRate	OrigDataStartFrame	OrigNumFrames
30.0	30.0	7	21	m	30.0	1	49
Frame#	Time	THUMB_TIP	THUMB_IP	THUMB_MCP	THUMB_CMC	INDEX_TIP	INDEX_DIP	INDEX_PIP	INDEX_MCP	MIDDLE_TIP	MIDDLE_DIP	MIDDLE_PIP	MIDDLE_MCP	RING_TIP	RING_DIP	RING_PIP	RING_MCP	PINKY_TIP	PINKY_DIP	PINKY_PIP	PINKY_MCP	WRIST
X1	Y1	Z1	X2	Y2	Z2	X3	Y3	Z3	X4	Y4	Z4	X5	Y5	Z5	X6	Y6	Z6	X7	Y7	Z7	X8	Y8	Z8	X9	Y9	Z9	X10	Y10	Z10	X11	Y11	Z11	X12	Y12	Z12	X13	Y13	Z13	X14	Y14	Z14	X15	Y15	Z15	X16	Y16	Z16	X17	Y17	Z17	X18	Y18	Z18	X19	Y19	Z19	X20	Y20	Z20	X21	Y21	Z21
0	0.0	0.003203180074691772	-0.05283810043334961	0.9982490234375	-0.008252249717712403	-0.041331001281738285	1.021469970703125	-0.0026161699295043942	-0.024637399673461916	1.0454300537109376	-0.02176740074157715	0.000140686005353927	1.0598699951171875	0.014341300010681152	-0.14091900634765625	1.0378299560546875	0.008810709953308106	-0.1179250030517578	1.0448299560546874	0.0028053500652313232	-0.09827230072021484	1.0537900390625	-0.014029800415039062	-0.06424659729003906	1.07106005859375	-0.009950160026550293	-0.046514701843261716	1.0425	-0.005879000186920166	-0.06151919937133789	1.02827001953125	-0.015072799682617188	-0.08635970306396484	1.03343994140625	-0.042489299774169924	-0.06668920135498047	1.0710899658203126	-0.024342300415039063	-0.04100009918212891	1.027510009765625	-0.0223218994140625	-0.057731201171875	1.01322998046875	-0.036481601715087894	-0.077689697265625	1.017760009765625	-0.05467679977416992	-0.060057899475097654	1.0523800048828125	-0.08036509704589843	-0.12189700317382812	1.0194299926757813	-0.07464730072021485	-0.09960070037841796	1.0206699829101562	-0.072127197265625	-0.08011669921875	1.026449951171875	-0.06542359924316406	-0.04961899948120117	1.0314200439453125	-0.051332000732421876	0.009249540328979492	1.0806099853515625
1	0.03333333333333333	0.002794549942016601	-0.052803398132324215	0.997344970703125	-0.008372670173645019	-0.042199100494384766	1.0207000122070313	-0.002736249923706054	-0.024986200332641602	1.0463199462890624	-0.02100659942626953	-0.00052401202917099	1.0576099853515626	0.013990500450134277	-0.14117799377441406	1.038550048828125	0.009012649536132813	-0.11952799987792968	1.0458299560546875	0.0020747001171112062	-0.09921109771728516	1.053760009765625	-0.013840800285339355	-0.0652511978149414	1.0703800048828125	-0.01042650032043457	-0.046527801513671876	1.04027001953125	-0.006522759914398193	-0.062174098968505856	1.0275899658203125	-0.01650900077819824	-0.08713780212402343	1.03272998046875	-0.041074501037597654	-0.0688563003540039	1.06856005859375	-0.023697399139404298	-0.04190700149536133	1.0254100341796875	-0.02306839942932129	-0.057838798522949215	1.0129299926757813	-0.03717549896240235	-0.08009870147705078	1.018239990234375	-0.05559370040893555	-0.06150339889526367	1.0502900390625	-0.08003859710693359	-0.12208200073242187	1.019760009765625	-0.07527200317382812	-0.10018199920654297	1.0218599853515624	-0.07169439697265625	-0.0813113021850586	1.0260400390625	-0.06560420227050781	-0.05117559814453125	1.0323599853515626	-0.052715499877929686	0.008977740287780762	1.08318994140625
2	0.06666666666666667	0.00266001009941101	-0.0526619987487793	0.9963289794921875	-0.008319060325622558	-0.04216730117797852	1.0202000122070312	-0.002628979921340942	-0.02524290084838867	1.0456600341796876	-0.0208346004486084	-0.000652884006500244	1.057199951171875	0.013754199981689454	-0.14135699462890625	1.037489990234375	0.008879039764404297	-0.11969999694824218	1.0448199462890626	0.002023760080337524	-0.09941660308837891	1.0528800048828124	-0.013607500076293945	-0.06541680145263672	1.069739990234375	-0.01016349983215332	-0.046832698822021485	1.03997998046875	-0.006415609836578369	-0.06233480072021484	1.0268900146484374	-0.016777000427246093	-0.08712940216064453	1.03177001953125	-0.040944801330566404	-0.06900769805908204	1.067969970703125	-0.02366950035095215	-0.04204600143432617	1.024699951171875	-0.02311090087890625	-0.05810749816894531	1.012719970703125	-0.03724860000610351	-0.08012020111083984	1.0179600219726563	-0.055717498779296874	-0.06166080093383789	1.0500899658203124	-0.07991490173339844	-0.12219999694824218	1.0196300048828124	-0.07512830352783204	-0.10026100158691406	1.0216099853515626	-0.07150309753417969	-0.08140070343017577	1.025550048828125	-0.06550900268554688	-0.05149539947509765	1.03197998046875	-0.05244459915161133	0.008748080253601074	1.0829599609375
3	0.1	0.002968689918518066	-0.05246110153198242	0.9959089965820312	-0.008039719581604004	-0.04204090118408203	1.01975	-0.002291470050811767	-0.025280399322509764	1.0450799560546875	-0.020550199508666992	-0.000614691972732544	1.05672998046875	0.01387279987335205	-0.14111399841308594	1.0368199462890626	0.009057209968566895	-0.11954199981689453	1.04418994140625	0.0022909901142120362	-0.09930919647216797	1.05227001953125	-0.013538999557495117	-0.06533470153808593	1.06972998046875	-0.010053299903869628	-0.046486900329589846	1.0389000244140625	-0.006000790119171142	-0.06240499877929687	1.0258699951171875	-0.016576499938964845	-0.08691680145263672	1.03125	-0.04074290084838867	-0.06891660308837891	1.067530029296875	-0.023369300842285157	-0.041896198272705076	1.0243900146484375	-0.02277750015258789	-0.057873100280761716	1.0123099975585939	-0.03681840133666992	-0.07990910339355468	1.0174400024414063	-0.05525690078735351	-0.06157580184936524	1.049760009765625	-0.07910549926757812	-0.12225800323486329	1.01952001953125	-0.07447200012207031	-0.10026699829101562	1.02147998046875	-0.07096549987792969	-0.0813905029296875	1.0253499755859374	-0.06517430114746094	-0.051331298828125	1.0316400146484375	-0.05216429901123047	0.008784669876098633	1.082469970703125
4	0.13333333333333333	0.0033640599250793447	-0.052017101287841795	0.9954810180664062	-0.0075618700981140135	-0.04158169937133789	1.01922998046875	-0.001971410036087036	-0.02473550033569336	1.0450899658203125	-0.02028700065612793	-0.000249377995729446	1.0565999755859374	0.01467959976196289	-0.14067999267578124	1.03643994140625	0.009741620063781738	-0.11903900146484375	1.0439100341796874	0.002829180002212524	-0.09877610015869141	1.0520699462890626	-0.01313230037689209	-0.06491280364990235	1.0689599609375	-0.00922821044921875	-0.04600210189819336	1.038530029296875	-0.005566919803619385	-0.061734901428222654	1.026219970703125	-0.016200899124145508	-0.08643270111083984	1.0308299560546874	-0.040389999389648434	-0.06849320220947265	1.0683199462890625	-0.022814300537109374	-0.041445899963378906	1.024300048828125	-0.022312400817871093	-0.057407600402832035	1.0118699951171874	-0.03638840103149414	-0.07945700073242187	1.0170599975585937	-0.05481949996948242	-0.06129560089111328	1.0495699462890624	-0.07830590057373046	-0.12216699981689454	1.01952001953125	-0.07372059631347656	-0.1001529998779297	1.0213599853515625	-0.07027839660644532	-0.08125469970703125	1.0251400146484375	-0.06472209930419921	-0.05121910095214844	1.0315699462890624	-0.05202159881591797	0.008986980438232421	1.082260009765625
5	0.16666666666666666	0.003672389984130859	-0.05100619888305664	0.9949240112304687	-0.0072513298988342275	-0.04084180068969727	1.0188099975585938	-0.0017505799531936641	-0.024219900131225585	1.0446700439453125	-0.020116600036621093	0.00024267600476741703	1.0563599853515624	0.0154128999710083	-0.1399770050048828	1.03568994140625	0.010371199607849121	-0.11841100311279297	1.0431500244140626	0.003417469978332519	-0.0983114013671875	1.0513299560546876	-0.01252530002593994	-0.0643781967163086	1.0683299560546875	-0.008679989814758302	-0.04542990112304687	1.03843994140625	-0.005152130126953125	-0.061049598693847656	1.0257099609375	-0.015814900398254395	-0.08572129821777344	1.030280029296875	-0.03996170043945312	-0.06811299896240235	1.067	-0.022381900787353515	-0.04075450134277344	1.0234299926757813	-0.02202669906616211	-0.05676810073852539	1.011469970703125	-0.03623730087280273	-0.07879280090332032	1.0164600219726563	-0.05458440017700195	-0.06090380096435547	1.0495	-0.07801789855957031	-0.12164900207519531	1.0189299926757813	-0.07339600372314453	-0.0996072006225586	1.0208599853515625	-0.06986720275878906	-0.08074120330810547	1.02456005859375	-0.0643501968383789	-0.05083169937133789	1.0311300048828125	-0.0518473014831543	0.009291950225830079	1.08197998046875
6	0.2	0.0038102300167083742	-0.05002679824829102	0.9943759765625	-0.007066460132598877	-0.03994049835205078	1.018280029296875	-0.001573480010032653	-0.023589599609375	1.0443299560546875	-0.01997249984741211	0.000805307984352111	1.0561400146484374	0.01563290023803711	-0.1392010040283203	1.0343399658203125	0.010546899795532227	-0.11773300170898438	1.042050048828125	0.003605299949645996	-0.0976937026977539	1.0504300537109375	-0.012451100349426269	-0.06396329879760743	1.0681400146484374	-0.008833149909973144	-0.044616600036621094	1.0375	-0.004867159843444825	-0.06031620025634766	1.0243399658203125	-0.015606599807739258	-0.0848864974975586	1.02931005859375	-0.0397416000366211	-0.06761080169677734	1.06625	-0.02224340057373047	-0.04003139877319336	1.0231099853515624	-0.021910600662231446	-0.05589920043945312	1.01075	-0.0362056999206543	-0.07802359771728516	1.0157899780273438	-0.054442100524902344	-0.060247798919677735	1.0486500244140624	-0.07785990142822266	-0.12076300048828124	1.017530029296875	-0.0731947021484375	-0.098739501953125	1.0196900024414062	-0.06968499755859375	-0.07990370178222657	1.0236900024414062	-0.06411599731445312	-0.049942501068115236	1.0303499755859375	-0.05178799819946289	0.009619850158691406	1.0819200439453125
